<?xml version="1.0" encoding="utf-8"?>
<!-- Generator: Adobe Illustrator 15.0.2, SVG Export Plug-In . SVG Version: 6.00 Build 0)  -->
<!DOCTYPE svg PUBLIC "-//W3C//DTD SVG 1.1//EN" "http://www.w3.org/Graphics/SVG/1.1/DTD/svg11.dtd">
<svg version="1.1" id="Layer_1" xmlns="http://www.w3.org/2000/svg" xmlns:xlink="http://www.w3.org/1999/xlink" x="0px" y="0px"
	 width="236.8px" height="60.6px" viewBox="0 0 236.8 60.6" style="enable-background:new 0 0 236.8 60.6;" xml:space="preserve">
<style type="text/css">
<![CDATA[
	.st0{fill:#FFFFFF;}
]]>
</style>
<g>
	<g>
		<path class="st0" d="M65.4,60.2h-3.7c-0.9,0-2-0.7-2.3-1.5l-8.7-18.9L42,58.6c-0.3,0.8-1.4,1.5-2.3,1.5H36c-2,0-3.1-1.8-2.3-3.6
			l12.4-27.1L34.5,4.2c-0.8-1.8,0.4-3.6,2.3-3.6h3.8c0.9,0,1.9,0.6,2.3,1.4l7.8,17.1L58.5,2c0.4-0.8,1.4-1.4,2.3-1.4h3.8
			c1.9,0,3.1,1.8,2.3,3.6L55.4,29.4l12.4,27.1C68.5,58.3,67.4,60.2,65.4,60.2z"/>
	</g>
	<g>
		<g>
			<path class="st0" d="M17.3,40.1L8.6,59.1c-0.3,0.8-1.4,1.5-2.3,1.5H2.6c-2,0-3.1-1.8-2.3-3.6l12.4-27.1L1.1,4.7
				C0.3,2.8,1.5,1.1,3.4,1.1h3.8c0.9,0,1.9,0.6,2.3,1.4l7.8,17.1l4.7,10.3L17.3,40.1z M21.9,29.9"/>
		</g>
	</g>
	<g>
		<path class="st0" d="M183.7,60.7h-25.4c-1.4,0-2.5-1.1-2.5-2.5V4.1c0-1.4,1.1-2.5,2.5-2.5h25.4c1.4,0,2.5,1.1,2.5,2.5v3.4
			c0,1.4-1.2,2.5-2.5,2.5h-19.4v16.9h17.7c1.4,0,2.5,1.1,2.5,2.6v3.3c0,1.4-1.1,2.5-2.5,2.5h-17.7v16.9h19.4c1.4,0,2.5,1.1,2.5,2.5
			v3.3C186.3,59.6,185.1,60.7,183.7,60.7z"/>
		<path class="st0" d="M221.9,60.7h-13.5c-1.4,0-2.5-1.1-2.5-2.5V4.1c0-1.4,1.1-2.5,2.5-2.5h13.5c8,0,14.3,6.4,14.3,14.3v30.4
			C236.2,54.3,229.8,60.7,221.9,60.7z M227.8,15.9c0-3.3-2.6-5.9-5.9-5.9h-7.6v42.2h7.6c3.3,0,5.9-2.6,5.9-5.9V15.9z"/>
	</g>
	<g>
		<path class="st0" d="M100.1,60.8c-0.1,0.2-0.3,0.3-0.5,0.3h-2c-0.4,0-0.6-0.3-0.5-0.7l24.2-59.5c0.1-0.1,0.3-0.2,0.5-0.2h2
			c0.4,0,0.6,0.2,0.5,0.7L100.1,60.8z"/>
	</g>
</g>
</svg>
