<?xml version="1.0" encoding="utf-8"?>
<!-- Generator: Adobe Illustrator 15.0.2, SVG Export Plug-In . SVG Version: 6.00 Build 0)  -->
<!DOCTYPE svg PUBLIC "-//W3C//DTD SVG 1.1//EN" "http://www.w3.org/Graphics/SVG/1.1/DTD/svg11.dtd">
<svg version="1.1" id="Layer_1" xmlns="http://www.w3.org/2000/svg" xmlns:xlink="http://www.w3.org/1999/xlink" x="0px" y="0px"
	 width="823.4px" height="121.7px" viewBox="0 0 823.4 121.7" style="enable-background:new 0 0 823.4 121.7;" xml:space="preserve"
	>
<style type="text/css">
<![CDATA[
	.st0{fill:#FFFFFF;}
]]>
</style>
<path class="st0" d="M527.1,112.5h-49.6c-0.4,0-0.8-0.4-0.8-0.8v-4.9c0-20.6,5.3-32.9,24.3-46.7c17.9-13,20.5-20.6,20.5-26.1v-4.9
	c0-9.7-7.9-17.4-17.4-17.4h-3.4c-9.5,0-17.4,7.7-17.4,17.4v3.2c0,0.6-0.3,0.8-0.7,0.8h-3.4c-0.4,0-0.8-0.3-0.8-0.8v-3.2
	c0-12.3,10-22.3,22.3-22.3h3.4c12.3,0,22.3,10,22.3,22.3V34c0,7.9-4.1,16.7-22.6,30.1c-16.7,12.1-21.6,22.6-22,43.5h45.4
	c0.4,0,0.8,0.3,0.8,0.8v3.2C527.9,112.1,527.5,112.5,527.1,112.5z"/>
<path class="st0" d="M600.7,114.2h-3.4c-12.3,0-22.3-10-22.3-22.3V29.1c0-12.3,10-22.3,22.3-22.3h3.4c12.3,0,22.3,10,22.3,22.3v62.8
	C623,104.2,613,114.2,600.7,114.2z M618.1,29.1c0-9.7-7.8-17.4-17.4-17.4h-3.4c-9.5,0-17.4,7.7-17.4,17.4v62.8
	c0,9.5,7.9,17.2,17.4,17.2h3.4c9.5,0,17.4-7.7,17.4-17.2V29.1z"/>
<path class="st0" d="M723.8,112.5H671c-0.4,0-0.8-0.4-0.8-0.8v-3.2c0-0.6,0.4-0.8,0.8-0.8h25.7v-94L679,34.3
	c-0.3,0.4-0.8,0.4-1.1,0.1l-2.5-2.1c-0.4-0.3-0.4-0.8-0.1-1.1l19.2-22.4c0.1-0.1,0.6-0.3,0.7-0.3h5.6c0.4,0,0.8,0.3,0.8,0.7v98.4
	h22.3c0.4,0,0.8,0.3,0.8,0.8v3.2C724.6,112.1,724.2,112.5,723.8,112.5z"/>
<path class="st0" d="M818.9,92.7h-9.1v18.9c0,0.4-0.4,0.8-0.8,0.8h-3.4c-0.4,0-0.8-0.4-0.8-0.8V92.7H766c-0.4,0-0.7-0.4-0.7-0.8
	v-8.7v-0.4l37-73.9c0.1-0.1,0.6-0.4,0.7-0.4h3.8c0.7,0,1,0.4,0.7,1.1l-37.3,74.6v3.5h34.6V62.2c0-0.6,0.4-0.8,0.8-0.8h3.4
	c0.4,0,0.8,0.3,0.8,0.8v25.5h9.1c0.4,0,0.7,0.4,0.7,0.8v3.4C819.6,92.3,819.4,92.7,818.9,92.7z"/>
<g>
	<path class="st0" d="M119.3,110.7H113c-1.5,0-3.4-1.2-4-2.6L94.1,75.5l-14.9,32.6c-0.6,1.4-2.5,2.6-4,2.6h-6.3
		c-3.4,0-5.4-3.2-4-6.2l21.2-46.6L66.2,14.6c-1.4-3.2,0.7-6.2,4-6.2h6.5c1.5,0,3.3,1.1,4,2.5l13.4,29.4l13.4-29.4
		c0.7-1.4,2.5-2.5,4-2.5h6.5c3.3,0,5.4,3,4,6.2l-19.9,43.3l21.2,46.6C124.7,107.5,122.8,110.7,119.3,110.7z"/>
</g>
<g>
	<g>
		<path class="st0" d="M36.6,76.3l-14.9,32.6c-0.6,1.4-2.5,2.6-4,2.6h-6.3c-3.4,0-5.4-3.2-4-6.2l21.2-46.6L8.8,15.3
			c-1.4-3.2,0.7-6.2,4-6.2h6.5c1.5,0,3.3,1.1,4,2.5L36.6,41l8,17.7L36.6,76.3z"/>
	</g>
</g>
<path class="st0" d="M322.6,111.7h-43.7c-2.3,0-4.2-1.9-4.2-4.4v-93c0-2.3,1.9-4.2,4.2-4.2h43.7c2.3,0,4.4,1.9,4.4,4.2v5.9
	c0,2.3-2.1,4.4-4.4,4.4h-33.4v29h30.4c2.5,0,4.4,1.9,4.4,4.4v5.8c0,2.3-1.9,4.4-4.4,4.4h-30.4v29h33.4c2.3,0,4.4,1.9,4.4,4.4v5.8
	C327,109.7,324.9,111.7,322.6,111.7z"/>
<path class="st0" d="M398.2,111.7h-23.3c-2.3,0-4.2-1.9-4.2-4.4v-93c0-2.3,1.9-4.2,4.2-4.2h23.3c13.7,0,24.6,11,24.6,24.6V87
	C422.8,100.6,411.9,111.7,398.2,111.7z M408.3,34.7c0-5.6-4.5-10.1-10.1-10.1h-13v72.6h13c5.6,0,10.1-4.5,10.1-10.1V34.7z"/>
<g>
	<path class="st0" d="M178.9,111.9c-0.1,0.3-0.6,0.6-0.8,0.6h-3.5c-0.7,0-1-0.6-0.8-1.1L215.2,9.1c0.1-0.1,0.6-0.4,0.8-0.4h3.5
		c0.7,0,1,0.4,0.8,1.1L178.9,111.9z"/>
</g>
</svg>
