<?xml version="1.0" encoding="utf-8"?>
<!-- Generator: Adobe Illustrator 15.0.2, SVG Export Plug-In . SVG Version: 6.00 Build 0)  -->
<!DOCTYPE svg PUBLIC "-//W3C//DTD SVG 1.1//EN" "http://www.w3.org/Graphics/SVG/1.1/DTD/svg11.dtd">
<svg version="1.1" id="Layer_1" xmlns="http://www.w3.org/2000/svg" xmlns:xlink="http://www.w3.org/1999/xlink" x="0px" y="0px"
	 width="521.2px" height="121.7px" viewBox="0 0 521.2 121.7" enable-background="new 0 0 521.2 121.7" xml:space="preserve">
<path fill="#FFFFFF" d="M215.1,114.2h-49.6c-0.4,0-0.8-0.4-0.8-0.801v-4.9c0-20.6,5.3-32.899,24.3-46.699
	c17.9-13,20.5-20.6,20.5-26.1v-4.9c0-9.7-7.9-17.4-17.4-17.4H188.7c-9.5,0-17.4,7.7-17.4,17.4v3.2c0,0.6-0.3,0.8-0.7,0.8H167.2
	c-0.4,0-0.8-0.3-0.8-0.8v-3.2c0-12.3,10-22.3,22.3-22.3h3.399c12.301,0,22.301,10,22.301,22.3v4.9c0,7.9-4.101,16.7-22.601,30.1
	c-16.7,12.1-21.6,22.6-22,43.5h45.4c0.399,0,0.8,0.3,0.8,0.8v3.2C215.9,113.799,215.5,114.2,215.1,114.2z"/>
<path fill="#FFFFFF" d="M288.7,114.2h-3.4c-12.3,0-22.3-10-22.3-22.3V29.1c0-12.3,10-22.3,22.3-22.3h3.4c12.3,0,22.3,10,22.3,22.3
	v62.8C311,104.2,301,114.2,288.7,114.2z M306.1,29.1c0-9.7-7.8-17.4-17.399-17.4h-3.4c-9.5,0-17.399,7.7-17.399,17.4v62.8
	c0,9.5,7.899,17.2,17.399,17.2h3.4c9.5,0,17.399-7.7,17.399-17.2V29.1z"/>
<path fill="#FFFFFF" d="M411.8,114.2H359c-0.4,0-0.8-0.4-0.8-0.801V110.2c0-0.601,0.399-0.801,0.8-0.801h25.7v-94l-17.7,20.6
	c-0.3,0.4-0.8,0.4-1.1,0.1l-2.5-2.1c-0.4-0.3-0.4-0.8-0.101-1.1l19.2-22.4c0.1-0.1,0.6-0.3,0.7-0.3h5.6c0.4,0,0.8,0.3,0.8,0.7v98.4
	H411.9c0.399,0,0.8,0.3,0.8,0.8v3.2C412.6,113.799,412.2,114.2,411.8,114.2z"/>
<path fill="#FFFFFF" d="M506.9,94.5H497.8v18.9c0,0.4-0.399,0.8-0.8,0.8h-3.4c-0.399,0-0.8-0.399-0.8-0.8V94.5H454
	c-0.4,0-0.7-0.4-0.7-0.8V85v-0.4l37-73.899c0.101-0.1,0.601-0.4,0.7-0.4h3.8c0.7,0,1,0.4,0.7,1.1L458.2,86v3.5h34.6V64
	c0-0.6,0.4-0.8,0.8-0.8h3.4c0.4,0,0.8,0.3,0.8,0.8v25.5h9.101c0.399,0,0.699,0.4,0.699,0.801V93.7
	C507.6,94.099,507.4,94.5,506.9,94.5z"/>
<path fill="#FFFFFF" d="M119.3,114.2H113c-1.5,0-3.4-1.199-4-2.6L94.1,79l-14.9,32.6c-0.6,1.4-2.5,2.6-4,2.6h-6.3
	c-3.4,0-5.4-3.199-4-6.199L86.1,61.4L66.2,18.1c-1.4-3.2,0.7-6.2,4-6.2h6.5c1.5,0,3.3,1.1,4,2.5l13.4,29.4l13.4-29.4
	c0.7-1.4,2.5-2.5,4-2.5h6.5c3.3,0,5.4,3,4,6.2l-19.9,43.3L123.3,108C124.7,111,122.8,114.2,119.3,114.2z"/>
<path fill="#FFFFFF" d="M36.6,78.999l-14.9,32.601c-0.6,1.399-2.5,2.601-4,2.601h-6.3c-3.4,0-5.4-3.201-4-6.201l21.2-46.6
	l-19.8-43.4c-1.4-3.2,0.7-6.2,4-6.2h6.5c1.5,0,3.3,1.1,4,2.5l13.3,29.4l8,17.7L36.6,78.999z"/>
</svg>
