<?xml version="1.0" encoding="utf-8"?>
<!-- Generator: Adobe Illustrator 15.0.2, SVG Export Plug-In . SVG Version: 6.00 Build 0)  -->
<!DOCTYPE svg PUBLIC "-//W3C//DTD SVG 1.1//EN" "http://www.w3.org/Graphics/SVG/1.1/DTD/svg11.dtd">
<svg version="1.1" id="Layer_1" xmlns="http://www.w3.org/2000/svg" xmlns:xlink="http://www.w3.org/1999/xlink" x="0px" y="0px"
	 width="320px" height="100px" viewBox="0 0 320 100" style="enable-background:new 0 0 320 100;" xml:space="preserve">
<g>
	<path d="M43.1,53.8L31.4,33.2c0.2,2,0.3,3.6,0.3,4.8v15.8h-5V27.1h6.4L45,47.8c-0.2-1.9-0.3-3.7-0.3-5.2V27.1h5v26.8H43.1z"/>
	<path d="M76.7,46.1c0,2.6-1,4.6-2.9,6c-1.9,1.4-4.8,2.1-8.6,2.1c-3.4,0-6.1-0.6-8.1-1.8c-1.9-1.2-3.2-3.1-3.8-5.5l5.4-0.9
		c0.4,1.4,1.1,2.4,2.1,3.1s2.5,1,4.4,1c3.9,0,5.9-1.2,5.9-3.6c0-0.8-0.2-1.4-0.7-1.9s-1.1-0.9-1.9-1.2s-2.4-0.7-4.7-1.2
		c-2-0.5-3.4-0.8-4.2-1.1c-0.8-0.3-1.5-0.6-2.1-1c-0.6-0.4-1.2-0.9-1.6-1.4c-0.4-0.5-0.8-1.2-1-1.9c-0.2-0.7-0.4-1.6-0.4-2.5
		c0-2.4,0.9-4.3,2.7-5.6c1.8-1.3,4.5-1.9,7.9-1.9c3.3,0,5.8,0.5,7.5,1.6c1.7,1,2.7,2.8,3.2,5.1l-5.4,0.7c-0.3-1.2-0.8-2-1.7-2.6
		c-0.9-0.6-2.1-0.9-3.7-0.9c-3.4,0-5.1,1.1-5.1,3.2c0,0.7,0.2,1.3,0.5,1.7c0.4,0.4,0.9,0.8,1.6,1.1c0.7,0.3,2.1,0.7,4.3,1.2
		c2.6,0.5,4.4,1,5.5,1.5s2,1,2.6,1.6c0.6,0.6,1.1,1.3,1.5,2.2C76.5,44,76.7,45,76.7,46.1z"/>
	<path d="M80.8,53.8V27.1h5.6v26.8H80.8z"/>
	<path d="M104.3,49.8c1.5,0,2.9-0.2,4.2-0.6c1.4-0.4,2.4-1,3.2-1.6v-3.7h-6.5v-4.1h11.7v9.8c-1.4,1.5-3.3,2.6-5.5,3.4
		c-2.3,0.8-4.7,1.2-7.1,1.2c-4.4,0-7.7-1.2-10-3.6c-2.3-2.4-3.5-5.8-3.5-10.3c0-4.4,1.2-7.8,3.5-10.1c2.4-2.3,5.7-3.5,10.2-3.5
		c6.3,0,10.3,2.3,12,7l-5.2,1.6c-0.6-1.4-1.4-2.4-2.6-3.1c-1.2-0.7-2.6-1-4.2-1c-2.6,0-4.6,0.8-6,2.4c-1.4,1.6-2.1,3.9-2.1,6.9
		c0,3,0.7,5.4,2.1,7C99.8,49,101.7,49.8,104.3,49.8z"/>
	<path d="M139.1,53.8V42.3h-11.7v11.5h-5.6V27.1h5.6v10.7h11.7V27.1h5.6v26.8H139.1z"/>
	<path d="M162,31.4v22.4h-5.6V31.4h-8.6v-4.3h22.9v4.3H162z"/>
</g>
<g>
	<path d="M26.3,86.7l-2.4-6.8H13.7l-2.4,6.8H5.7l9.8-26.8h6.6l9.7,26.8H26.3z M18.8,64l-0.1,0.4c-0.1,0.5-0.3,1-0.5,1.6
		c-0.2,0.6-1.3,3.8-3.3,9.6h7.7L20,67.9l-0.8-2.6L18.8,64z"/>
	<path d="M53.8,86.7l-6.2-10.2h-6.6v10.2h-5.6V59.9h13.4c3.2,0,5.7,0.7,7.4,2.1c1.7,1.4,2.6,3.3,2.6,5.9c0,1.9-0.5,3.5-1.6,4.9
		c-1.1,1.4-2.5,2.3-4.3,2.7l7.2,11.2H53.8z M53.2,68.1c0-2.6-1.6-3.9-4.9-3.9h-7.2v7.9h7.3c1.6,0,2.8-0.4,3.6-1.1
		C52.8,70.4,53.2,69.4,53.2,68.1z"/>
	<path d="M76,82.6c3.4,0,5.7-1.7,7-5.1l4.9,1.8c-1.1,2.6-2.6,4.5-4.6,5.8c-2,1.3-4.5,1.9-7.3,1.9c-4.3,0-7.6-1.2-10-3.7
		c-2.3-2.4-3.5-5.8-3.5-10.2c0-4.4,1.1-7.8,3.4-10.1s5.6-3.5,9.9-3.5c3.1,0,5.7,0.6,7.7,1.9c2,1.3,3.4,3.1,4.2,5.6l-4.9,1.3
		c-0.4-1.3-1.2-2.4-2.5-3.2c-1.2-0.8-2.7-1.2-4.3-1.2c-2.5,0-4.5,0.8-5.8,2.4s-2,3.9-2,6.9c0,3.1,0.7,5.4,2,7S73.5,82.6,76,82.6z"/>
	<path d="M110.5,86.7l-2.4-6.8H98l-2.4,6.8H90l9.8-26.8h6.6l9.7,26.8H110.5z M103,64l-0.1,0.4c-0.1,0.5-0.3,1-0.5,1.6
		c-0.2,0.6-1.3,3.8-3.3,9.6h7.7l-2.6-7.7l-0.8-2.6L103,64z"/>
	<path d="M143.5,73.1c0,2.8-0.5,5.2-1.6,7.2c-1.1,2.1-2.6,3.6-4.6,4.7c-2,1.1-4.2,1.6-6.8,1.6h-10.8V59.9h9.7c4.5,0,8,1.1,10.5,3.4
		C142.3,65.6,143.5,68.8,143.5,73.1z M137.9,73.1c0-2.9-0.7-5.1-2.2-6.6c-1.5-1.5-3.6-2.3-6.4-2.3h-4v18.1h4.7
		c2.4,0,4.3-0.8,5.7-2.5C137.2,78.2,137.9,75.9,137.9,73.1z"/>
	<path d="M147.8,86.7V59.9h21v4.3h-15.4V71h14.3v4.3h-14.3v7h16.2v4.3H147.8z"/>
</g>
<g>
	<rect x="16" y="13.7" width="5.6" height="40.1"/>
</g>
<g>
	<rect x="185.5" y="26.8" width="2.3" height="60.3"/>
</g>
<g>
	<path d="M216.5,51.6h-3l-4-6.5l-4,6.5h-2.8l5.3-8.2l-4.9-7.6h2.9l3.7,6l3.7-6h2.8l-4.9,7.7L216.5,51.6z"/>
	<path d="M234.9,43.7c0,2.6-0.6,4.6-1.9,6c-1.3,1.4-3.1,2.1-5.5,2.1c-2.4,0-4.2-0.7-5.5-2.1c-1.3-1.4-1.9-3.4-1.9-6
		c0-2.6,0.6-4.6,1.9-6c1.3-1.4,3.1-2.1,5.5-2.1c2.4,0,4.2,0.7,5.5,2.1C234.2,39.1,234.9,41.1,234.9,43.7z M222.8,43.7
		c0,1.9,0.4,3.4,1.2,4.4c0.8,1,2,1.5,3.5,1.5c1.5,0,2.7-0.5,3.5-1.5s1.2-2.5,1.2-4.4c0-1.9-0.4-3.4-1.2-4.4c-0.8-1-1.9-1.5-3.5-1.5
		c-1.6,0-2.7,0.5-3.5,1.5S222.8,41.7,222.8,43.7z"/>
	<path d="M249.5,35.8h2.7l-5.5,15.8h-2.7l-5.5-15.8h2.7l3.3,9.8c0.2,0.5,0.4,1.1,0.6,1.8c0.2,0.7,0.3,1.3,0.4,1.7
		c0.1-0.5,0.2-1.2,0.4-1.9c0.2-0.7,0.4-1.3,0.5-1.6L249.5,35.8z"/>
	<path d="M265.4,51.6h-9V35.8h9V38H259v4.3h6v2.2h-6v5h6.4V51.6z"/>
	<path d="M273.6,45.3v6.3H271V35.8h4.5c2,0,3.6,0.4,4.5,1.1s1.5,1.9,1.5,3.5c0,2-1,3.4-3.1,4.2l4.5,7H280l-3.8-6.3H273.6z
		 M273.6,43.2h1.8c1.2,0,2.1-0.2,2.6-0.7c0.5-0.4,0.8-1.1,0.8-2c0-0.9-0.3-1.5-0.9-1.9c-0.6-0.4-1.5-0.6-2.6-0.6h-1.7V43.2z"/>
	<path d="M296.4,51.6h-9V35.8h9V38H290v4.3h6v2.2h-6v5h6.4V51.6z"/>
	<path d="M314.8,43.6c0,2.6-0.7,4.6-2.2,6s-3.5,2.1-6.3,2.1H302V35.8h4.9c2.5,0,4.5,0.7,5.9,2S314.8,41.1,314.8,43.6z M312.1,43.6
		c0-3.8-1.8-5.7-5.3-5.7h-2.2v11.5h1.8C310.2,49.4,312.1,47.5,312.1,43.6z"/>
</g>
<g>
	<path d="M210.3,78.2h-2.6V64.6h-4.7v-2.2H215v2.2h-4.7V78.2z"/>
	<path d="M228.5,78.2h-9V62.4h9v2.2h-6.4v4.3h6v2.2h-6v5h6.4V78.2z"/>
	<path d="M244,78.2l-1.6-4.4h-6.1l-1.5,4.4h-2.7l5.9-15.9h2.8l5.9,15.9H244z M241.7,71.6l-1.5-4.3c-0.1-0.3-0.3-0.7-0.4-1.4
		c-0.2-0.6-0.3-1.1-0.4-1.4c-0.2,0.9-0.5,1.9-0.9,2.9l-1.4,4.1H241.7z"/>
	<path d="M257.8,78.2L253.3,65h-0.1c0.1,2,0.2,3.8,0.2,5.5v7.7H251V62.4h3.6L259,75h0.1l4.5-12.6h3.7v15.8h-2.5v-7.8
		c0-0.8,0-1.8,0.1-3.1c0-1.3,0.1-2,0.1-2.3h-0.1l-4.8,13.2H257.8z"/>
</g>
</svg>
