<?xml version="1.0" encoding="utf-8"?>
<!-- Generator: Adobe Illustrator 15.0.2, SVG Export Plug-In . SVG Version: 6.00 Build 0)  -->
<!DOCTYPE svg PUBLIC "-//W3C//DTD SVG 1.1//EN" "http://www.w3.org/Graphics/SVG/1.1/DTD/svg11.dtd">
<svg version="1.1" id="Layer_1" xmlns="http://www.w3.org/2000/svg" xmlns:xlink="http://www.w3.org/1999/xlink" x="0px" y="0px"
	 width="508.5px" height="147.9px" viewBox="0 0 508.5 147.9" style="enable-background:new 0 0 508.5 147.9;" xml:space="preserve"
	>
<path d="M178.6,142.3c-0.2,0.4-0.8,0.8-1.2,0.8h-4.8c-1,0-1.3-0.8-1.2-1.5L228.7,0.6c0.2-0.2,0.8-0.6,1.2-0.6h4.8
	c1,0,1.3,0.6,1.2,1.5L178.6,142.3z"/>
<path d="M366.4,143.1h-61.5c-3.3,0-6-2.7-6-6.2V6c0-3.3,2.7-6,6-6h61.5c3.3,0,6.2,2.7,6.2,6v8.3c0,3.3-2.9,6.2-6.2,6.2h-47v40.9
	h42.8c3.5,0,6.2,2.7,6.2,6.2v8.1c0,3.3-2.7,6.2-6.2,6.2h-42.8v40.9h47c3.3,0,6.2,2.7,6.2,6.2v8.1
	C372.5,140.4,369.6,143.1,366.4,143.1z"/>
<path d="M470.3,143.1h-32.8c-3.3,0-6-2.7-6-6.2V6c0-3.3,2.7-6,6-6h32.8C489.5,0,505,15.5,505,34.7v73.6
	C505,127.5,489.5,143.1,470.3,143.1z M484.5,34.7c0-7.9-6.4-14.3-14.3-14.3H452v102.2h18.3c7.9,0,14.3-6.4,14.3-14.3V34.7z"/>
<g>
	<g>
		<g>
			<path d="M22.9,143.1H10c-4.8,0-7.5-4.4-5.6-8.7l29.7-65.2L6.3,8.7C4.4,4.2,7.3,0,11.9,0h13.2l20.2,44.6l11.2,24.7L45.3,93.9
				L22.9,143.1z M56.5,69.3"/>
		</g>
	</g>
</g>
<g>
	<g>
		<path d="M72.5,69.3L41.3,0.1h18.1c2.1,0,4.6,1.5,5.6,3.5l18.7,41.1l18.7-41.1c1-1.9,3.5-3.5,5.6-3.5h9.1c4.6,0,7.5,4.2,5.6,8.7
			L94.8,69.3l29.7,65.2c1.9,4.2-0.8,8.7-5.6,8.7H110c-2.1,0-4.8-1.7-5.6-3.7L83.6,94l-20.8,45.5c-0.8,1.9-3.5,3.7-5.6,3.7H39.4
			L72.5,69.3z"/>
	</g>
</g>
</svg>
