<?xml version="1.0" encoding="utf-8"?>
<!-- Generator: Adobe Illustrator 15.0.2, SVG Export Plug-In . SVG Version: 6.00 Build 0)  -->
<!DOCTYPE svg PUBLIC "-//W3C//DTD SVG 1.1//EN" "http://www.w3.org/Graphics/SVG/1.1/DTD/svg11.dtd">
<svg version="1.1" id="Layer_1" xmlns="http://www.w3.org/2000/svg" xmlns:xlink="http://www.w3.org/1999/xlink" x="0px" y="0px"
	 width="1178px" height="152.9px" viewBox="0 0 1178 152.9" style="enable-background:new 0 0 1178 152.9;" xml:space="preserve">
<g>
	<g>
		<path d="M177.7,147.8c-0.2,0.4-0.8,0.8-1.2,0.8h-4.8c-1,0-1.3-0.8-1.2-1.5L227.8,6.1c0.2-0.2,0.8-0.6,1.2-0.6h4.8
			c1,0,1.3,0.6,1.2,1.5L177.7,147.8z"/>
		<path d="M338.9,150.7h-6.2c-19.1,0-34.7-15.6-34.7-34.9V38.1c0-19.1,15.6-34.7,34.7-34.7h6.2c19.1,0,34.7,15.6,34.7,34.7v77.7
			C373.6,135.1,358,150.7,338.9,150.7z M353.1,38.1c0-7.9-6.4-14.3-14.3-14.3h-6.2c-7.9,0-14.3,6.4-14.3,14.3v77.7
			c0,7.9,6.4,14.5,14.3,14.5h6.2c7.9,0,14.3-6.6,14.3-14.5V38.1z"/>
		<path d="M482.1,143.7c-0.6,2.7-3.3,4.8-6,4.8h-14.8c-2.7,0-5.4-2.1-6-4.8L427,12.8c-1-3.9,1.9-7.3,6-7.3h8.3c2.7,0,5.4,2.1,6,4.8
			l21.6,108.5l21.6-108.5c0.6-2.7,3.3-4.8,6-4.8h8.3c4,0,6.9,3.5,6,7.3L482.1,143.7z"/>
		<path d="M634.6,148.5h-61.5c-3.3,0-6-2.7-6-6.2V11.5c0-3.3,2.7-6,6-6h61.5c3.3,0,6.2,2.7,6.2,6v8.3c0,3.3-2.9,6.2-6.2,6.2h-47
			v40.9h42.8c3.5,0,6.2,2.7,6.2,6.2v8.1c0,3.3-2.7,6.2-6.2,6.2h-42.8v40.9h47c3.3,0,6.2,2.7,6.2,6.2v8.1
			C640.8,145.9,637.9,148.5,634.6,148.5z"/>
		<path d="M767.8,148.5H759c-2.1,0-4.8-1.7-5.6-3.7l-17.5-41.3h-15.6v38.8c0,3.5-2.9,6.2-6.2,6.2h-8.3c-3.3,0-6-2.7-6-6.2V11.5
			c0-3.3,2.7-6,6-6h32.8c19.3,0,34.7,15.4,34.7,34.7v28.5c0,12.9-6.9,24.1-17.2,30.1l17.4,41.3C775.3,144.3,772.5,148.5,767.8,148.5
			z M752.8,40.2c0-7.9-6.4-14.3-14.3-14.3h-18.3v57.3h18.3c7.9,0,14.3-6.6,14.3-14.5V40.2z"/>
		<path d="M842.8,147.8c-0.2,0.4-0.8,0.8-1.2,0.8h-4.8c-1,0-1.3-0.8-1.2-1.5L892.9,6.1c0.2-0.2,0.8-0.6,1.2-0.6h4.8
			c1,0,1.3,0.6,1.2,1.5L842.8,147.8z"/>
		<path d="M1033.7,148.5h-61.5c-3.3,0-6-2.7-6-6.2V11.5c0-3.3,2.7-6,6-6h61.5c3.3,0,6.2,2.7,6.2,6v8.3c0,3.3-2.9,6.2-6.2,6.2h-47
			v40.9h42.8c3.5,0,6.2,2.7,6.2,6.2v8.1c0,3.3-2.7,6.2-6.2,6.2h-42.8v40.9h47c3.3,0,6.2,2.7,6.2,6.2v8.1
			C1039.8,145.9,1037,148.5,1033.7,148.5z"/>
		<path d="M1137.6,148.5h-32.8c-3.3,0-6-2.7-6-6.2V11.5c0-3.3,2.7-6,6-6h32.8c19.3,0,34.7,15.4,34.7,34.7v73.6
			C1172.3,132.9,1156.9,148.5,1137.6,148.5z M1151.8,40.2c0-7.9-6.4-14.3-14.3-14.3h-18.3v102.2h18.3c7.9,0,14.3-6.4,14.3-14.3V40.2
			z"/>
	</g>
	<g>
		<g>
			<g>
				<path d="M22,148.6H9.1c-4.8,0-7.5-4.4-5.6-8.7l29.7-65.2L5.5,14.1c-1.9-4.4,1-8.7,5.6-8.7h13.2L44.4,50l11.2,24.7L44.4,99.4
					L22,148.6z M55.6,74.7"/>
			</g>
		</g>
	</g>
	<g>
		<g>
			<path d="M71.6,74.8L40.4,5.5h18.1c2.1,0,4.6,1.5,5.6,3.5l18.7,41.1L101.5,9c1-1.9,3.5-3.5,5.6-3.5h9.1c4.6,0,7.5,4.2,5.6,8.7
				L93.9,74.8l29.7,65.2c1.9,4.2-0.8,8.7-5.6,8.7h-8.9c-2.1,0-4.8-1.7-5.6-3.7L82.8,99.4l-20.8,45.5c-0.8,1.9-3.5,3.7-5.6,3.7H38.5
				L71.6,74.8z"/>
		</g>
	</g>
</g>
</svg>
